<svg
  xmlns="http://www.w3.org/2000/svg"
  viewBox="0 0 28 28"
  id="icon-control-play-pause"
>
  <g>
    <path
      fill="#FFF"
      d="M8.516 4C6.047 4 6 6.016 6 6.016l-.008 15.968s.024 2.008 2.508 2.008 2.496-1.996 2.496-1.996L11.016 6s-.031-2-2.5-2zm10.812 0c-2.469 0-2.516 2.016-2.516 2.016l-.008 15.968s.024 2.008 2.508 2.008 2.496-1.996 2.496-1.996L21.828 6s-.031-2-2.5-2z"
    ></path>
  </g>
  <g>
    <!-- <path
      fill="#FFF"
      d="M6.969 3.125s-1.297-.375-2.391.406C3.89 4.093 4 6.008 4 6.008v16.008s-.125 2.226 1 2.976 4-.961 4-.961l12.969-8.156S23 15.062 23 14s-1.031-1.938-1.031-1.938l-15-8.937z"
    ></path> -->
  </g>
</svg>
