<svg class="icon" viewBox="0 0 1024 1024" xmlns="http://www.w3.org/2000/svg" width="81" height="81"><path d="M197.4 322.8c.2-2-5.1-74.8 10.5-91.2s41.3-17.4 119.8-7.9 295.9 241.8 295.9 241.8l12.2 112.1-167.5-16.1S341.8 548 329.5 525.2c-12.1-22.8-132.1-202.4-132.1-202.4z" fill="#FFFAE3"/><path d="m652.5 594-185-17.8c-.2 0-.4 0-.7-.1-1.4-.1-33.4-3.6-66.6-9.9-64-12.1-78.1-24-83.6-34.1-9.4-17.6-90.1-139.3-131.5-201.2l-2.9-4.4.4-4.4c0-.5 0-1.2-.1-2-3.1-70.6 6.2-89.9 14.7-98.7 20.7-21.8 51.2-22.2 132.2-12.4 36.2 4.4 96.9 46.3 185.6 128.3 63.8 58.9 118.7 117.5 119.3 118.1l3.4 3.6 14.8 135zm-182.6-47.1c3.2.3 106.8 10.3 149.4 14.3l-9.7-89.3c-12.8-13.5-60.4-63.2-114.5-113.2C386.6 258.6 342.6 240.3 326 238.3c-72.4-8.8-96.5-8-107.4 3.4-.4.4-9.4 11-6.6 76.4 17.2 25.7 117.8 176.7 130.4 199.8 1.2 1.2 11.6 10 66.3 20 30.5 5.7 59.3 8.8 61.2 9zm-127.6-29.1z" fill="#3F2D26"/><path d="M269.9 218.5c-7.6-5.7-17.3-18-18.6-27.4-1.1-7.7.4-15.7 6.2-21.3 24.2-23.7 77.3-27.9 152.7-10.1 108 25.5 507 241.7 480 485.1S673.6 871.4 625.8 870.6c-47.8-.8-131.7-21.3-246-136.5C260.7 613.9 170.5 489.8 145.1 401c-16.5-57.8-13.8-116.6 13.6-129.2 37.2-17.1 261.3 165.9 355.5 245 4.3 3.6 10.2-2.2 6.5-6.5-72.5-86.7-231.3-277.3-250.8-291.8z" fill="#915D2D"/><path d="M652.6 885.8c-7.6 0-14.4-.2-19.9-.3-2.6-.1-5-.1-7.1-.2-32.9-.6-68-9.6-104.1-26.8-48.9-23.3-100-61.7-152.1-114.1-126.3-127.3-213.2-251-238.5-339.4-8.8-30.7-12.4-61.5-10.2-86.9 3.4-38.9 19.1-53.9 31.7-59.7 16.7-7.7 49-2.3 171.2 88 38.9 28.7 79.8 60.9 116.1 90.2-26.6-31.7-55.1-65.6-81.4-96.5-78.1-91.8-94.2-107.4-97.4-109.9-10.4-7.8-22.5-23.4-24.4-37.2-1.8-13.4 1.9-25.4 10.5-33.8 28.6-28 86.1-32.8 166.3-13.9C467.4 158.1 595 217.3 710 309c97.3 77.7 210.1 199.2 194.8 337.4-11.6 104.4-53.5 175.8-124.7 212.2-46.3 23.8-95 27.2-127.5 27.2zM164.3 285.4c-15.3 7.9-21.2 55.2-5.1 111.5 23.6 82.6 110 204.7 231 326.8C497.1 831.5 577.5 855.1 626 855.9c2.2 0 4.7.1 7.4.2 59.5 1.7 217.7 6.1 242-212.9 13.9-124.8-92.3-238.1-183.9-311.2-110.2-87.9-235.1-146.3-284.9-158-67.9-16-118.6-13.8-139 6.3-2.3 2.2-2.3 6-1.9 8.8.5 3.9 6.8 13.2 12.8 17.6 16.7 12.5 110 122.6 244.8 284l8.5 10.2c6.5 7.8 6 19-1.2 26.1-7.2 7.1-18.4 7.6-26.1 1.1-40.8-34.3-120.2-100-193.3-154.2-38.7-28.8-71.1-51-96.3-66-37.1-22.2-48.5-22.7-50.6-22.5z" fill="#3F2D26"/><path d="M411.7 176.7c-42.2-10.8-73-14.5-99.5-10.5 1.2.3 111.1 33.3 219.9 102.4 109.3 69.4 319 220.7 280 449.9-8 46.9-23.2 80.9-31.9 106.5 48.6-33.5 84.3-83.8 94.8-178.1 26.1-235-359.1-443.4-463.3-470.2z" fill="#87522D"/></svg>